<mxfile host="Electron" modified="2024-12-31T14:49:18.763Z" agent="Mozilla/5.0 (Windows NT 10.0; Win64; x64) AppleWebKit/537.36 (KHTML, like Gecko) draw.io/24.4.0 Chrome/120.0.6099.109 Electron/28.1.0 Safari/537.36" etag="q5N8eQrd9oxHRqZVOX4r" version="24.4.0" type="device">
  <diagram name="Страница — 1" id="yl2C16WziueRUwdkztVR">
    <mxGraphModel dx="1646" dy="478" grid="1" gridSize="10" guides="1" tooltips="1" connect="1" arrows="1" fold="1" page="1" pageScale="1" pageWidth="827" pageHeight="1169" math="0" shadow="0">
      <root>
        <mxCell id="0" />
        <mxCell id="1" parent="0" />
        <mxCell id="JVvKLcHgdptiB9xyYqqR-1" value="&lt;div style=&quot;background-color:#1e1f22;color:#bcbec4&quot;&gt;&lt;pre style=&quot;font-family:&#39;JetBrains Mono&#39;,monospace;font-size:9,8pt;&quot;&gt;&lt;span style=&quot;color:#6aab73;&quot;&gt;123 456 789 101 102 103 104 105 106 107 108 109 110&lt;/span&gt;&lt;/pre&gt;&lt;/div&gt;" style="rounded=0;whiteSpace=wrap;html=1;" vertex="1" parent="1">
          <mxGeometry x="50" y="90" width="420" height="40" as="geometry" />
        </mxCell>
        <mxCell id="JVvKLcHgdptiB9xyYqqR-2" value="0" style="rounded=0;whiteSpace=wrap;html=1;" vertex="1" parent="1">
          <mxGeometry x="-20" y="90" width="60" height="40" as="geometry" />
        </mxCell>
        <mxCell id="JVvKLcHgdptiB9xyYqqR-3" value="LBA" style="text;html=1;align=center;verticalAlign=middle;whiteSpace=wrap;rounded=0;" vertex="1" parent="1">
          <mxGeometry x="-20" y="60" width="60" height="30" as="geometry" />
        </mxCell>
        <mxCell id="JVvKLcHgdptiB9xyYqqR-4" value="data" style="text;html=1;align=center;verticalAlign=middle;whiteSpace=wrap;rounded=0;" vertex="1" parent="1">
          <mxGeometry x="50" y="60" width="420" height="30" as="geometry" />
        </mxCell>
        <mxCell id="JVvKLcHgdptiB9xyYqqR-5" value="&lt;div style=&quot;background-color:#1e1f22;color:#bcbec4&quot;&gt;&lt;pre style=&quot;font-family:&#39;JetBrains Mono&#39;,monospace;font-size:9,8pt;&quot;&gt;ConcurrentSkipListMap&amp;lt;LBA,ConcurrentSkipListMap&amp;lt;BlockHash,ILBA&amp;gt;&amp;gt; &lt;span style=&quot;color:#c77dbb;font-style:italic;&quot;&gt;packageT&lt;/span&gt;&lt;/pre&gt;&lt;/div&gt;" style="rounded=0;whiteSpace=wrap;html=1;" vertex="1" parent="1">
          <mxGeometry x="-90" y="210" width="560" height="40" as="geometry" />
        </mxCell>
        <mxCell id="JVvKLcHgdptiB9xyYqqR-6" value="" style="rounded=0;whiteSpace=wrap;html=1;" vertex="1" parent="1">
          <mxGeometry x="510" y="160" width="120" height="60" as="geometry" />
        </mxCell>
      </root>
    </mxGraphModel>
  </diagram>
</mxfile>
